<?xml version="1.0" standalone="no"?>
<!DOCTYPE svg PUBLIC "-//W3C//DTD SVG 1.1//EN" "http://www.w3.org/Graphics/SVG/1.1/DTD/svg11.dtd">
<!--Generator: Xara Designer (www.xara.com), SVG filter version: 6.6.0.6-->
<svg fill="none" fill-rule="evenodd" stroke="black" stroke-width="0.501" stroke-linejoin="bevel" stroke-miterlimit="10" font-family="Times New Roman" font-size="16" style="font-variant-ligatures:none" xmlns:xlink="http://www.w3.org/1999/xlink" xmlns="http://www.w3.org/2000/svg" version="1.1" overflow="visible" width="423.631pt" height="96.586pt" viewBox="83.545 -810.801 423.631 96.586">
 <defs>
  <style type="text/css">@import url('https://themes.googleusercontent.com/fonts/css?family=Comfortaa:600');
@import url('https://themes.googleusercontent.com/fonts/css?family=Open Sans:400,600');</style>
 </defs>
 <g id="Layer 1" transform="scale(1 -1)">
  <g id="Group" stroke="none">
   <text xml:space="preserve" transform="translate(179.945 740.673) scale(1 -1)" kerning="auto" font-size="56.345" stroke-width="1.08" stroke-linejoin="round" stroke-linecap="round" font-family="Comfortaa SemiBold"><tspan x="0" y="0" fill="#ffffff">NEGO</tspan><tspan x="181.471" y="0" fill="#c1d42e">SUD</tspan><tspan x="310.723" y="0" fill="#ffffff"> </tspan></text>
   <g id="Group_1" fill-rule="nonzero" stroke-linejoin="miter" stroke-width="1.858" fill="#c1d42e">
    <path d="M 102.12,810.801 C 102.12,788.353 124.409,788.511 124.409,788.511 C 118.777,788.511 113.93,785.273 111.405,780.618 C 108.88,785.273 104.033,788.511 98.404,788.511 C 90.233,788.511 83.545,781.821 83.545,773.653 C 83.545,765.482 90.233,758.794 98.404,758.794 C 99.144,758.794 99.899,758.923 100.61,759.025 C 99.232,756.776 98.404,754.178 98.404,751.363 C 98.404,743.716 104.296,737.505 111.753,736.736 C 110.375,734.489 109.55,731.888 109.55,729.074 C 109.55,720.903 116.238,714.215 124.409,714.215 C 132.58,714.215 139.268,720.903 139.268,729.074 C 139.268,731.888 138.44,734.489 137.062,736.736 C 144.522,737.505 150.414,743.716 150.414,751.363 C 150.414,754.119 149.641,756.688 148.322,758.905 C 149.004,758.806 149.714,758.794 150.414,758.794 C 158.582,758.794 165.272,765.482 165.272,773.653 C 165.272,781.821 158.582,788.511 150.414,788.511 C 144.779,788.511 139.932,785.273 137.41,780.618 C 135.028,785.015 130.576,788.178 125.336,788.511 C 129.602,788.786 146.698,791.168 146.698,810.801 C 127.197,810.801 124.713,793.704 124.409,789.439 C 124.102,793.704 121.621,810.801 102.12,810.801 Z M 98.404,781.084 C 102.552,781.084 105.835,777.801 105.835,773.653 C 105.835,769.501 102.552,766.222 98.404,766.222 C 94.253,766.222 90.976,769.501 90.976,773.653 C 90.976,777.801 94.253,781.084 98.404,781.084 Z M 124.409,781.084 C 128.557,781.084 131.84,777.801 131.84,773.653 C 131.84,769.501 128.557,766.222 124.409,766.222 C 120.258,766.222 116.978,769.501 116.978,773.653 C 116.978,777.801 120.258,781.084 124.409,781.084 Z M 150.414,781.084 C 154.562,781.084 157.842,777.801 157.842,773.653 C 157.842,769.501 154.562,766.222 150.414,766.222 C 146.262,766.222 142.983,769.501 142.983,773.653 C 142.983,777.801 146.262,781.084 150.414,781.084 Z M 111.405,766.687 C 111.522,766.482 111.639,766.31 111.753,766.105 C 111.522,766.076 111.291,766.02 111.057,765.991 C 111.189,766.207 111.276,766.453 111.405,766.687 Z M 137.41,766.687 C 137.539,766.441 137.729,766.237 137.875,765.991 C 137.612,766.035 137.337,766.076 137.062,766.105 C 137.176,766.31 137.293,766.482 137.41,766.687 Z M 113.263,758.794 C 117.414,758.794 120.694,755.515 120.694,751.363 C 120.694,747.212 117.414,743.933 113.263,743.933 C 109.114,743.933 105.835,747.212 105.835,751.363 C 105.835,755.515 109.114,758.794 113.263,758.794 Z M 135.552,758.794 C 139.703,758.794 142.983,755.515 142.983,751.363 C 142.983,747.212 139.703,743.933 135.552,743.933 C 131.401,743.933 128.124,747.212 128.124,751.363 C 128.124,755.515 131.401,758.794 135.552,758.794 Z M 124.409,736.505 C 128.557,736.505 131.84,733.222 131.84,729.074 C 131.84,724.923 128.557,721.646 124.409,721.646 C 120.258,721.646 116.978,724.923 116.978,729.074 C 116.978,733.222 120.258,736.505 124.409,736.505 Z" marker-start="none" marker-end="none"/>
   </g>
  </g>
 </g>
</svg>
